<svg xmlns="http://www.w3.org/2000/svg" xmlns:xlink="http://www.w3.org/1999/xlink" width="500" zoomAndPan="magnify" viewBox="0 0 375 374.999991" height="500" preserveAspectRatio="xMidYMid meet" version="1.0"><defs><g/><clipPath id="ca1ab9a9e3"><path d="M 77.441406 77.90625 L 297.191406 77.90625 L 297.191406 173.15625 L 77.441406 173.15625 Z M 77.441406 77.90625 " clip-rule="nonzero"/></clipPath><clipPath id="45960b8301"><path d="M 73.070312 72 L 301.820312 72 L 301.820312 184.339844 L 73.070312 184.339844 Z M 73.070312 72 " clip-rule="nonzero"/></clipPath><clipPath id="ac43d8352f"><path d="M 101.679688 105.378906 L 273.320312 105.378906 L 273.320312 277.023438 L 101.679688 277.023438 Z M 101.679688 105.378906 " clip-rule="nonzero"/></clipPath><clipPath id="7f5420eeb7"><path d="M 187.5 105.378906 C 140.101562 105.378906 101.679688 143.804688 101.679688 191.203125 C 101.679688 238.601562 140.101562 277.023438 187.5 277.023438 C 234.898438 277.023438 273.320312 238.601562 273.320312 191.203125 C 273.320312 143.804688 234.898438 105.378906 187.5 105.378906 Z M 187.5 105.378906 " clip-rule="nonzero"/></clipPath><clipPath id="4fe2064252"><path d="M 101.679688 105.378906 L 273.3125 105.378906 L 273.3125 277.011719 L 101.679688 277.011719 Z M 101.679688 105.378906 " clip-rule="nonzero"/></clipPath><clipPath id="c90bdd6c66"><path d="M 187.496094 105.378906 C 140.097656 105.378906 101.679688 143.800781 101.679688 191.195312 C 101.679688 238.589844 140.097656 277.011719 187.496094 277.011719 C 234.890625 277.011719 273.3125 238.589844 273.3125 191.195312 C 273.3125 143.800781 234.890625 105.378906 187.496094 105.378906 Z M 187.496094 105.378906 " clip-rule="nonzero"/></clipPath><clipPath id="8e579a02ac"><path d="M 121.171875 128 L 204 128 L 204 189 L 121.171875 189 Z M 121.171875 128 " clip-rule="nonzero"/></clipPath></defs><g clip-path="url(#ca1ab9a9e3)"><path fill="#fff9d5" d="M 187.496094 298.019531 C 126.828125 298.019531 77.441406 248.628906 77.441406 187.964844 C 77.441406 127.296875 126.828125 77.90625 187.496094 77.90625 C 248.164062 77.90625 297.554688 127.296875 297.554688 187.964844 C 297.554688 248.628906 248.164062 298.019531 187.496094 298.019531 Z M 187.496094 79.53125 C 127.699219 79.53125 79.066406 128.164062 79.066406 187.964844 C 79.066406 247.761719 127.699219 296.394531 187.496094 296.394531 C 247.296875 296.394531 295.925781 247.761719 295.925781 187.964844 C 295.925781 128.164062 247.296875 79.53125 187.496094 79.53125 Z M 187.496094 79.53125 " fill-opacity="1" fill-rule="nonzero"/></g><g clip-path="url(#45960b8301)"><path fill="#097c3c" d="M 301.042969 198.601562 C 301.609375 193.949219 301.914062 189.210938 301.914062 184.394531 C 301.914062 179.578125 301.609375 174.839844 301.042969 170.183594 L 283.9375 165.144531 C 282.441406 157.472656 280.03125 150.148438 276.855469 143.246094 L 287.703125 129.15625 C 283.089844 120.796875 277.460938 113.066406 270.964844 106.164062 L 254.203125 112.113281 L 254.183594 112.113281 C 248.558594 106.914062 242.324219 102.359375 235.605469 98.59375 L 236.089844 80.800781 C 227.589844 76.792969 218.519531 73.820312 209.046875 72.015625 L 198.988281 86.691406 C 195.222656 86.246094 191.378906 86.023438 187.492188 86.023438 C 183.585938 86.023438 179.761719 86.246094 175.976562 86.691406 L 165.914062 72.015625 C 156.441406 73.820312 147.375 76.792969 138.875 80.800781 L 139.359375 98.59375 C 132.640625 102.359375 126.40625 106.914062 120.777344 112.113281 L 120.757812 112.113281 L 104.019531 106.164062 C 97.519531 113.066406 91.894531 120.796875 87.257812 129.15625 L 98.109375 143.246094 C 94.929688 150.148438 92.523438 157.472656 91.023438 165.144531 L 73.941406 170.183594 C 73.375 174.839844 73.070312 179.578125 73.070312 184.394531 C 73.070312 189.210938 73.375 193.949219 73.941406 198.601562 L 91.023438 203.644531 C 92.523438 211.316406 94.929688 218.640625 98.109375 225.542969 L 87.257812 239.632812 C 91.894531 247.992188 97.519531 255.722656 104.019531 262.625 L 120.777344 256.675781 C 126.40625 261.875 132.636719 266.410156 139.359375 270.175781 L 138.871094 287.984375 C 147.375 291.992188 156.441406 294.96875 165.914062 296.769531 L 175.992188 282.074219 C 179.757812 282.519531 183.605469 282.742188 187.492188 282.742188 C 191.378906 282.742188 195.222656 282.519531 198.988281 282.074219 L 209.046875 296.769531 C 218.519531 294.96875 227.589844 291.996094 236.089844 287.988281 L 235.605469 270.195312 C 242.324219 266.410156 248.558594 261.875 254.183594 256.675781 L 270.964844 262.625 C 277.460938 255.722656 283.089844 247.992188 287.703125 239.632812 L 276.855469 225.542969 C 280.03125 218.640625 282.441406 211.316406 283.9375 203.644531 Z M 187.511719 252.140625 C 150.085938 252.140625 119.746094 221.800781 119.746094 184.375 C 119.746094 146.988281 150.085938 116.648438 187.511719 116.648438 C 224.898438 116.648438 255.238281 146.988281 255.238281 184.375 C 255.238281 221.800781 224.898438 252.140625 187.511719 252.140625 Z M 187.511719 252.140625 " fill-opacity="1" fill-rule="nonzero"/></g><g clip-path="url(#ac43d8352f)"><g clip-path="url(#7f5420eeb7)"><path fill="#fff9d5" d="M 101.679688 105.378906 L 273.320312 105.378906 L 273.320312 277.023438 L 101.679688 277.023438 Z M 101.679688 105.378906 " fill-opacity="1" fill-rule="nonzero"/></g></g><g clip-path="url(#4fe2064252)"><g clip-path="url(#c90bdd6c66)"><path stroke-linecap="butt" transform="matrix(0.75, 0, 0, 0.75, 101.677791, 105.380002)" fill="none" stroke-linejoin="miter" d="M 114.424412 -0.00146084 C 51.226491 -0.00146084 0.00252917 51.227709 0.00252917 114.420422 C 0.00252917 177.613134 51.226491 228.842304 114.424412 228.842304 C 177.617124 228.842304 228.846294 177.613134 228.846294 114.420422 C 228.846294 51.227709 177.617124 -0.00146084 114.424412 -0.00146084 Z M 114.424412 -0.00146084 " stroke="#097c3c" stroke-width="2" stroke-opacity="1" stroke-miterlimit="4"/></g></g><g fill="#fff9d5" fill-opacity="1"><g transform="translate(80.828679, 189.915822)"><g><path d="M 12.800781 0.332031 L 10.402344 0.355469 L 10.414062 1.378906 L 2.429688 1.460938 L 2.421875 0.433594 L 0.00390625 0.457031 L 0.0625 6.371094 L 2.480469 6.347656 L 2.46875 5.230469 L 5.304688 5.203125 C 5.320312 6.832031 4.921875 7.039062 3.253906 7.054688 C 1.113281 7.074219 -0.136719 8.242188 -0.113281 10.640625 C -0.09375 12.671875 1.320312 13.296875 2.839844 13.28125 L 3.847656 13.273438 L 3.835938 12.046875 L 3.230469 12.050781 C 2.863281 12.054688 2.644531 11.910156 2.640625 11.636719 C 2.636719 11.308594 3.09375 11.191406 3.882812 11.1875 C 5.199219 11.171875 6.289062 10.027344 6.457031 8.761719 C 6.691406 10.277344 7.710938 11.402344 9.140625 11.390625 C 11.226562 11.371094 12.902344 10.527344 12.859375 6.28125 Z M 10.46875 5.152344 L 10.476562 6.066406 C 10.488281 7.128906 9.945312 7.738281 8.863281 7.75 C 7.894531 7.757812 7.375 7.066406 7.363281 6.007812 L 7.355469 5.183594 Z M 10.46875 5.152344 "/></g></g></g><g fill="#fff9d5" fill-opacity="1"><g transform="translate(80.94478, 203.898515)"><g><path d="M 2.175781 14.632812 L 4.550781 14.28125 L 4.359375 13.011719 L 14.171875 8.277344 L 13.136719 1.320312 L 10.800781 1.667969 L 10.910156 2.410156 L 2.597656 1.148438 L 2.414062 -0.0820312 L 0.0390625 0.273438 L 0.898438 6.03125 L 3.269531 5.675781 L 3.058594 4.265625 L 4.347656 4.460938 L 4.898438 8.175781 L 3.726562 8.738281 L 3.46875 7.015625 L 1.097656 7.371094 Z M 6.621094 4.808594 L 10.707031 5.402344 L 6.972656 7.179688 Z M 6.621094 4.808594 "/></g></g></g><g fill="#fff9d5" fill-opacity="1"><g transform="translate(83.354983, 219.226549)"><g><path d="M 8.621094 4.554688 C 8.902344 4.398438 9.585938 3.800781 9.890625 3.597656 L 11.464844 2.042969 L 11.726562 2.957031 L 13.976562 2.3125 L 12.25 -3.707031 L 9.996094 -3.058594 L 10.246094 -2.199219 L 5.542969 2.847656 L 3.464844 3.445312 L 3.175781 2.441406 L 0.890625 3.097656 L 2.503906 8.730469 L 4.792969 8.070312 L 4.511719 7.085938 L 6.550781 6.5 L 13.207031 8.113281 L 13.480469 9.066406 L 15.730469 8.417969 L 14.371094 3.683594 L 12.121094 4.332031 L 12.398438 5.296875 L 10.34375 4.839844 C 9.863281 4.769531 9.015625 4.59375 8.640625 4.625 Z M 8.621094 4.554688 "/></g></g></g><g fill="#fff9d5" fill-opacity="1"><g transform="translate(86.846087, 231.407837)"><g><path d="M 0.179688 0.421875 L 2.335938 5.492188 C 4.101562 9.636719 7.296875 11.023438 11.136719 9.386719 C 14.355469 8.019531 15.875 4.625 14.140625 0.550781 L 11.957031 -4.589844 L 9.730469 -3.644531 L 10.175781 -2.597656 L 2.863281 0.511719 L 2.417969 -0.53125 Z M 4.332031 3.964844 L 11.644531 0.855469 L 11.917969 1.496094 C 12.675781 3.28125 11.292969 4.746094 9.488281 5.515625 C 7.382812 6.410156 5.398438 6.378906 4.605469 4.605469 Z M 4.332031 3.964844 "/></g></g></g><g fill="#fff9d5" fill-opacity="1"><g transform="translate(92.194695, 243.947334)"><g><path d="M 3.175781 6.054688 C 5.273438 9.621094 8.617188 10.332031 12.1875 8.234375 C 15.738281 6.148438 17 2.984375 14.730469 -0.882812 C 12.808594 -4.148438 9.121094 -5.039062 5.710938 -3.039062 C 1.765625 -0.71875 1.238281 2.753906 3.175781 6.054688 Z M 5.652344 4.597656 C 5.058594 3.589844 5.933594 2.078125 8.003906 0.863281 C 9.960938 -0.289062 11.738281 -0.441406 12.289062 0.53125 C 13.003906 1.746094 11.777344 3.167969 9.867188 4.289062 C 7.910156 5.4375 6.238281 5.59375 5.652344 4.597656 Z M 5.652344 4.597656 "/></g></g></g><g fill="#fff9d5" fill-opacity="1"><g transform="translate(99.292881, 256.054789)"><g><path d="M 17.167969 4.890625 L 19.019531 3.429688 L 15.601562 -0.894531 L 13.75 0.570312 L 14.523438 1.546875 L 11.101562 4.246094 L 13.59375 -3.4375 L 10.335938 -7.5625 L 8.484375 -6.097656 L 9.140625 -5.261719 L 2.804688 -0.257812 L 2.136719 -1.105469 L 0.285156 0.359375 L 3.769531 4.769531 L 5.621094 3.304688 L 4.746094 2.199219 L 8.367188 -0.660156 L 5.789062 7.328125 L 8.230469 10.414062 L 16.417969 3.945312 Z M 17.167969 4.890625 "/></g></g></g><g fill="#fff9d5" fill-opacity="1"><g transform="translate(108.937678, 267.839956)"><g/></g></g><g fill="#fff9d5" fill-opacity="1"><g transform="translate(112.166483, 271.446231)"><g><path d="M 10.660156 3.265625 C 10.417969 3.292969 8.445312 3.695312 7.292969 2.675781 C 5.992188 1.523438 6.375 -0.316406 7.578125 -1.671875 C 8.902344 -3.164062 10.628906 -3.8125 11.613281 -2.9375 C 12.585938 -2.074219 12.28125 -0.851562 11.535156 0.0742188 L 13.984375 2.25 L 17.4375 -1.640625 L 15.285156 -3.546875 L 14.289062 -3.058594 C 14.3125 -3.332031 14.378906 -4.648438 13.007812 -5.863281 C 11.214844 -7.453125 7.167969 -7.664062 4.371094 -4.515625 C 1.664062 -1.460938 1.941406 2.113281 4.847656 4.691406 C 6.640625 6.28125 8.867188 6.640625 10.710938 6.441406 Z M 10.660156 3.265625 "/></g></g></g><g fill="#fff9d5" fill-opacity="1"><g transform="translate(121.885095, 280.074896)"><g><path d="M 5.453125 4.125 C 8.867188 6.460938 12.199219 5.675781 14.53125 2.261719 C 16.859375 -1.140625 16.652344 -4.539062 12.949219 -7.070312 C 9.820312 -9.210938 6.105469 -8.445312 3.875 -5.179688 C 1.289062 -1.402344 2.292969 1.964844 5.453125 4.125 Z M 7.074219 1.753906 C 6.105469 1.09375 6.253906 -0.648438 7.605469 -2.628906 C 8.886719 -4.503906 10.433594 -5.398438 11.34375 -4.753906 C 12.507812 -3.957031 12.003906 -2.152344 10.753906 -0.320312 C 9.472656 1.550781 8.027344 2.402344 7.074219 1.753906 Z M 7.074219 1.753906 "/></g></g></g><g fill="#fff9d5" fill-opacity="1"><g transform="translate(133.463753, 288.007286)"><g><path d="M 17.617188 -2.882812 L 18.667969 -5 L 13.734375 -7.457031 L 12.683594 -5.339844 L 13.796875 -4.785156 L 11.855469 -0.886719 L 10.835938 -8.898438 L 6.132812 -11.242188 L 5.078125 -9.128906 L 6.03125 -8.65625 L 2.429688 -1.429688 L 1.460938 -1.910156 L 0.410156 0.203125 L 5.441406 2.710938 L 6.492188 0.597656 L 5.230469 -0.03125 L 7.289062 -4.164062 L 8.359375 4.164062 L 11.882812 5.917969 L 16.535156 -3.421875 Z M 17.617188 -2.882812 "/></g></g></g><g fill="#fff9d5" fill-opacity="1"><g transform="translate(147.298627, 294.788889)"><g><path d="M 0.433594 0.148438 L 3.46875 1.175781 L 4.109375 -0.09375 C 4.503906 0.910156 5.441406 2.136719 7.191406 2.730469 C 9.257812 3.433594 12.117188 3.320312 13.035156 0.617188 C 14.417969 -3.457031 7.410156 -5.371094 8.019531 -7.160156 C 8.222656 -7.765625 9.023438 -7.839844 9.527344 -7.671875 C 10.738281 -7.257812 11.496094 -6.191406 11.0625 -4.90625 L 14.199219 -3.839844 L 15.679688 -8.191406 L 12.695312 -9.207031 L 12.027344 -7.808594 C 11.777344 -9.34375 10.460938 -10.3125 9.003906 -10.804688 C 7.304688 -11.382812 4.484375 -11.046875 3.613281 -8.480469 C 2.113281 -4.058594 8.964844 -2.371094 8.503906 -1.019531 C 8.257812 -0.289062 7.34375 -0.445312 6.738281 -0.652344 C 6.019531 -0.933594 4.648438 -1.671875 5.140625 -3.128906 L 1.917969 -4.222656 Z M 0.433594 0.148438 "/></g></g></g><g fill="#fff9d5" fill-opacity="1"><g transform="translate(160.022835, 299.07751)"><g><path d="M 14.878906 -10.007812 L 2.84375 -12.480469 L 1.886719 -7.816406 L 4.523438 -7.277344 L 4.996094 -9.570312 L 6.535156 -9.253906 L 4.9375 -1.472656 L 3.46875 -1.773438 L 2.976562 0.613281 L 9.648438 1.980469 L 10.136719 -0.402344 L 8.648438 -0.707031 L 10.25 -8.492188 L 11.753906 -8.183594 L 11.285156 -5.886719 L 13.921875 -5.34375 Z M 14.878906 -10.007812 "/></g></g></g><g fill="#fff9d5" fill-opacity="1"><g transform="translate(173.026854, 301.742236)"><g><path d="M 1.421875 -12.726562 L 1.242188 -10.335938 L 2.265625 -10.257812 L 1.660156 -2.296875 L 0.640625 -2.375 L 0.457031 0.0351562 L 6.351562 0.480469 L 6.535156 -1.929688 L 5.421875 -2.011719 L 5.636719 -4.84375 C 7.261719 -4.71875 7.433594 -4.304688 7.304688 -2.640625 C 7.144531 -0.503906 8.199219 0.839844 10.589844 1.023438 C 12.617188 1.175781 13.363281 -0.179688 13.476562 -1.695312 L 13.554688 -2.699219 L 12.328125 -2.792969 L 12.285156 -2.191406 C 12.257812 -1.824219 12.09375 -1.617188 11.820312 -1.636719 C 11.492188 -1.664062 11.417969 -2.128906 11.476562 -2.914062 C 11.574219 -4.226562 10.527344 -5.410156 9.28125 -5.6875 C 10.8125 -5.792969 12.019531 -6.710938 12.128906 -8.132812 C 12.285156 -10.214844 11.59375 -11.957031 7.355469 -12.277344 Z M 6.027344 -9.992188 L 6.9375 -9.921875 C 8 -9.839844 8.558594 -9.25 8.476562 -8.171875 C 8.402344 -7.203125 7.671875 -6.746094 6.613281 -6.824219 L 5.792969 -6.886719 Z M 6.027344 -9.992188 "/></g></g></g><g fill="#fff9d5" fill-opacity="1"><g transform="translate(186.934979, 302.766503)"><g><path d="M -0.425781 -12.792969 L -0.292969 -10.417969 L 0.730469 -10.472656 L 0.976562 -5.957031 C 1.203125 -1.808594 3.285156 0.0234375 6.980469 -0.0703125 C 10.417969 -0.257812 12.121094 -2.3125 11.886719 -6.644531 L 11.640625 -11.089844 L 12.628906 -11.140625 L 12.5 -13.5 L 7.089844 -13.203125 L 7.222656 -10.792969 L 8.207031 -10.84375 L 8.421875 -6.96875 C 8.59375 -3.824219 7.886719 -3.347656 6.769531 -3.285156 C 5.601562 -3.222656 4.90625 -3.808594 4.746094 -6.75 L 4.53125 -10.699219 L 5.519531 -10.753906 L 5.390625 -13.113281 Z M -0.425781 -12.792969 "/></g></g></g><g fill="#fff9d5" fill-opacity="1"><g transform="translate(200.835667, 301.950415)"><g><path d="M 9.148438 -6.375 C 9.019531 -6.167969 8.117188 -4.363281 6.605469 -4.089844 C 4.894531 -3.777344 3.683594 -5.210938 3.359375 -6.996094 C 3 -8.960938 3.554688 -10.714844 4.851562 -10.953125 C 6.128906 -11.1875 6.90625 -10.191406 7.175781 -9.03125 L 10.398438 -9.621094 L 9.464844 -14.734375 L 6.636719 -14.21875 L 6.40625 -13.136719 C 6.207031 -13.320312 5.210938 -14.183594 3.410156 -13.855469 C 1.050781 -13.421875 -1.613281 -10.371094 -0.855469 -6.226562 C -0.125 -2.210938 2.863281 -0.222656 6.679688 -0.921875 C 9.039062 -1.351562 10.695312 -2.878906 11.675781 -4.453125 Z M 9.148438 -6.375 "/></g></g></g><g fill="#fff9d5" fill-opacity="1"><g transform="translate(213.601496, 299.604939)"><g><path d="M 8.171875 -15.960938 L -3.554688 -12.296875 L -2.136719 -7.753906 L 0.433594 -8.554688 L -0.265625 -10.792969 L 1.238281 -11.261719 L 3.609375 -3.679688 L 2.175781 -3.230469 L 2.902344 -0.90625 L 9.402344 -2.9375 L 8.675781 -5.261719 L 7.226562 -4.808594 L 4.855469 -12.394531 L 6.324219 -12.851562 L 7.023438 -10.613281 L 9.589844 -11.417969 Z M 8.171875 -15.960938 "/></g></g></g><g fill="#fff9d5" fill-opacity="1"><g transform="translate(226.092295, 295.543502)"><g><path d="M -4.542969 -11.972656 L -3.605469 -9.746094 L -2.542969 -10.191406 L 0.539062 -2.871094 L -0.523438 -2.421875 L 0.421875 -0.175781 L 6.023438 -2.535156 L 5.078125 -4.78125 L 4.035156 -4.339844 L 0.953125 -11.664062 L 1.996094 -12.105469 L 1.058594 -14.332031 Z M -4.542969 -11.972656 "/></g></g></g><g fill="#fff9d5" fill-opacity="1"><g transform="translate(232.897647, 292.835942)"><g><path d="M 6.160156 -2.96875 C 9.796875 -4.941406 10.617188 -8.261719 8.644531 -11.898438 C 6.679688 -15.519531 3.558594 -16.890625 -0.382812 -14.75 C -3.710938 -12.941406 -4.730469 -9.285156 -2.84375 -5.8125 C -0.660156 -1.789062 2.796875 -1.144531 6.160156 -2.96875 Z M 4.789062 -5.496094 C 3.757812 -4.9375 2.277344 -5.859375 1.132812 -7.96875 C 0.0507812 -9.964844 -0.0429688 -11.746094 0.945312 -12.261719 C 2.1875 -12.9375 3.5625 -11.664062 4.621094 -9.714844 C 5.703125 -7.722656 5.800781 -6.042969 4.789062 -5.496094 Z M 4.789062 -5.496094 "/></g></g></g><g fill="#fff9d5" fill-opacity="1"><g transform="translate(245.240317, 286.153932)"><g><path d="M 5.472656 -16.992188 L 4.070312 -18.894531 L -0.367188 -15.625 L 1.035156 -13.722656 L 2.035156 -14.460938 L 4.621094 -10.953125 L -2.976562 -13.703125 L -7.207031 -10.585938 L -5.804688 -8.683594 L -4.949219 -9.316406 L -0.164062 -2.8125 L -1.03125 -2.171875 L 0.367188 -0.269531 L 4.894531 -3.605469 L 3.492188 -5.507812 L 2.359375 -4.671875 L -0.378906 -8.386719 L 7.519531 -5.539062 L 10.6875 -7.871094 L 4.5 -16.273438 Z M 5.472656 -16.992188 "/></g></g></g><g fill="#fff9d5" fill-opacity="1"><g transform="translate(257.350816, 276.919515)"><g/></g></g><g fill="#fff9d5" fill-opacity="1"><g transform="translate(261.069172, 273.810401)"><g><path d="M -0.65625 -17.917969 L -9.101562 -9 L -5.648438 -5.726562 L -3.796875 -7.679688 L -5.496094 -9.292969 L -4.414062 -10.433594 L 1.355469 -4.972656 L 0.320312 -3.882812 L 2.089844 -2.207031 L 6.773438 -7.152344 L 5.003906 -8.828125 L 3.960938 -7.722656 L -1.808594 -13.1875 L -0.75 -14.304688 L 0.949219 -12.691406 L 2.800781 -14.644531 Z M -0.65625 -17.917969 "/></g></g></g><g fill="#fff9d5" fill-opacity="1"><g transform="translate(270.192318, 264.16863)"><g><path d="M -10.0625 -7.921875 L -8.125 -6.507812 L -7.519531 -7.332031 L -1.074219 -2.625 L -1.679688 -1.796875 L 0.269531 -0.371094 L 3.757812 -5.144531 L 1.808594 -6.570312 L 1.148438 -5.667969 L -1.140625 -7.34375 C -0.179688 -8.660156 0.265625 -8.582031 1.609375 -7.601562 C 3.339844 -6.335938 5.039062 -6.523438 6.453125 -8.457031 C 7.652344 -10.097656 6.894531 -11.449219 5.667969 -12.34375 L 4.855469 -12.9375 L 4.128906 -11.949219 L 4.617188 -11.59375 C 4.914062 -11.375 5.003906 -11.128906 4.84375 -10.90625 C 4.648438 -10.640625 4.214844 -10.820312 3.578125 -11.285156 C 2.511719 -12.0625 0.957031 -11.796875 0.0625 -10.882812 C 0.78125 -12.242188 0.640625 -13.75 -0.511719 -14.59375 C -2.199219 -15.824219 -4.042969 -16.15625 -6.550781 -12.726562 Z M -5.308594 -10.390625 L -4.769531 -11.128906 C -4.144531 -11.984375 -3.34375 -12.148438 -2.472656 -11.511719 C -1.6875 -10.941406 -1.683594 -10.074219 -2.3125 -9.21875 L -2.796875 -8.554688 Z M -5.308594 -10.390625 "/></g></g></g><g fill="#fff9d5" fill-opacity="1"><g transform="translate(278.459887, 252.891807)"><g><path d="M 7.003906 -13.03125 L 4.894531 -14.164062 L 4.285156 -13.035156 L -6.410156 -15.105469 L -9.738281 -8.914062 L -7.65625 -7.796875 L -7.300781 -8.457031 L -1.394531 -2.472656 L -1.984375 -1.378906 L 0.128906 -0.242188 L 2.886719 -5.371094 L 0.773438 -6.503906 L 0.0976562 -5.246094 L -0.816406 -6.175781 L 0.960938 -9.480469 L 2.238281 -9.230469 L 1.417969 -7.699219 L 3.527344 -6.5625 Z M -2.429688 -7.8125 L -5.351562 -10.734375 L -1.292969 -9.925781 Z M -2.429688 -7.8125 "/></g></g></g><g fill="#fff9d5" fill-opacity="1"><g transform="translate(285.737415, 239.160588)"><g><path d="M 0.160156 -0.429688 L 2.085938 -5.59375 C 3.660156 -9.8125 2.292969 -13.019531 -1.617188 -14.476562 C -4.894531 -15.699219 -8.332031 -14.285156 -9.878906 -10.132812 L -11.832031 -4.898438 L -9.566406 -4.054688 L -9.171875 -5.121094 L -1.726562 -2.34375 L -2.121094 -1.28125 Z M -0.414062 -5.859375 L -7.859375 -8.636719 L -7.617188 -9.289062 C -6.9375 -11.105469 -4.921875 -11.214844 -3.089844 -10.53125 C -0.945312 -9.730469 0.472656 -8.34375 -0.171875 -6.511719 Z M -0.414062 -5.859375 "/></g></g></g><g fill="#fff9d5" fill-opacity="1"><g transform="translate(290.2965, 226.466015)"><g><path d="M -12.25 -3.730469 L -9.914062 -3.109375 L -9.617188 -4.222656 L -1.941406 -2.183594 L -2.234375 -1.066406 L 0.117188 -0.441406 L 1.679688 -6.316406 L -0.675781 -6.941406 L -0.964844 -5.84375 L -8.644531 -7.886719 L -8.355469 -8.984375 L -10.691406 -9.605469 Z M -12.25 -3.730469 "/></g></g></g><g fill="#fff9d5" fill-opacity="1"><g transform="translate(292.367432, 219.404805)"><g><path d="M -8.089844 -15.910156 L -10.425781 -16.273438 L -11.269531 -10.828125 L -8.9375 -10.464844 L -8.746094 -11.695312 L -4.4375 -11.027344 L -11.765625 -7.625 L -12.574219 -2.433594 L -10.238281 -2.070312 L -10.078125 -3.121094 L -2.097656 -1.882812 L -2.261719 -0.816406 L 0.0703125 -0.453125 L 0.933594 -6.007812 L -1.402344 -6.367188 L -1.617188 -4.976562 L -6.175781 -5.683594 L 1.433594 -9.226562 L 2.035156 -13.117188 L -8.277344 -14.71875 Z M -8.089844 -15.910156 "/></g></g></g><g fill="#fff9d5" fill-opacity="1"><g transform="translate(294.67564, 204.142094)"><g><path d="M 0.125 -9.539062 L 0.175781 -13.199219 L -4.402344 -13.261719 L -4.390625 -13.992188 L -6.351562 -14.019531 L -6.429688 -7.941406 L -4.472656 -7.914062 L -4.457031 -9.03125 L -3.6875 -9.019531 C -3.214844 -8.738281 -2.800781 -8.296875 -2.816406 -7.25 C -2.835938 -5.660156 -4.347656 -4.761719 -6.214844 -4.789062 C -8.046875 -4.8125 -9.644531 -5.859375 -9.625 -7.34375 C -9.609375 -8.421875 -8.757812 -9.363281 -7.273438 -9.398438 L -7.230469 -12.675781 L -12.628906 -12.746094 L -12.664062 -10.019531 L -11.351562 -9.617188 C -11.648438 -9.328125 -12.902344 -8.722656 -12.9375 -6.066406 C -12.976562 -3.210938 -10.265625 -0.410156 -6.277344 -0.359375 C -2.320312 -0.304688 0.203125 -2.816406 0.246094 -6.019531 C 0.261719 -7.429688 -0.363281 -8.574219 -1.035156 -8.984375 Z M 0.125 -9.539062 "/></g></g></g><path fill="#097c3c" d="M 231.707031 236.832031 C 232.957031 238.578125 233.09375 240.621094 232.011719 241.394531 L 219.558594 250.316406 C 218.480469 251.089844 216.589844 250.304688 215.339844 248.558594 L 188.589844 207.296875 L 163.777344 173.128906 C 162.527344 171.382812 162.390625 169.339844 163.472656 168.566406 L 171.195312 163.035156 C 172.273438 162.261719 174.164062 163.046875 175.414062 164.792969 L 199.324219 198.648438 Z M 231.707031 236.832031 " fill-opacity="1" fill-rule="nonzero"/><path fill="#080808" d="M 218.574219 251.585938 C 217.179688 251.585938 215.636719 250.644531 214.546875 249.125 L 187.773438 207.828125 L 162.988281 173.703125 C 161.398438 171.480469 161.363281 168.878906 162.902344 167.773438 L 170.625 162.242188 C 171.066406 161.929688 171.601562 161.761719 172.179688 161.761719 C 173.578125 161.761719 175.121094 162.707031 176.207031 164.222656 L 200.097656 198.050781 L 232.5 236.261719 C 234.089844 238.480469 234.125 241.082031 232.582031 242.1875 L 220.128906 251.105469 C 219.6875 251.421875 219.152344 251.585938 218.574219 251.585938 Z M 172.179688 163.710938 C 172.007812 163.710938 171.867188 163.75 171.761719 163.828125 L 164.039062 169.359375 C 163.5 169.746094 163.613281 171.226562 164.566406 172.5625 L 189.378906 206.722656 L 216.15625 248.027344 C 216.941406 249.121094 217.964844 249.636719 218.574219 249.636719 C 218.742188 249.636719 218.882812 249.597656 218.992188 249.523438 L 231.445312 240.601562 C 231.980469 240.21875 231.871094 238.753906 230.9375 237.429688 L 198.53125 199.210938 L 174.617188 165.351562 C 173.8125 164.226562 172.789062 163.710938 172.179688 163.710938 Z M 172.179688 163.710938 " fill-opacity="1" fill-rule="nonzero"/><path fill="#080808" d="M 197.707031 193.71875 L 183.292969 204.039062 L 184 205.007812 L 210.210938 246.652344 C 211.460938 248.398438 213.605469 249.003906 214.996094 248.007812 L 231.027344 236.523438 C 232.417969 235.527344 232.53125 233.304688 231.28125 231.558594 L 197.945312 194.058594 Z M 197.707031 193.71875 " fill-opacity="1" fill-rule="nonzero"/><path fill="#ffffff" d="M 214.222656 246.632812 C 213.859375 246.632812 213.488281 246.578125 213.113281 246.472656 C 212.058594 246.175781 211.101562 245.480469 210.410156 244.515625 L 207.25 239.496094 C 206.960938 239.039062 207.097656 238.4375 207.554688 238.152344 C 208.007812 237.867188 208.609375 238.003906 208.898438 238.457031 L 212.027344 243.429688 C 212.429688 243.988281 213.015625 244.417969 213.644531 244.597656 C 214.191406 244.753906 214.703125 244.6875 215.082031 244.417969 L 217.328125 242.808594 C 217.765625 242.496094 218.375 242.597656 218.6875 243.035156 C 219 243.472656 218.898438 244.082031 218.460938 244.394531 L 216.21875 246 C 215.636719 246.417969 214.953125 246.632812 214.222656 246.632812 Z M 214.222656 246.632812 " fill-opacity="1" fill-rule="nonzero"/><path fill="#097c3c" d="M 201.96875 139.230469 C 191.527344 127.65625 173.828125 125.523438 160.855469 134.816406 C 160.425781 135.121094 160.03125 135.460938 159.621094 135.785156 L 137.804688 151.414062 C 136.625 152.261719 136.351562 153.902344 137.199219 155.082031 L 138.050781 156.273438 C 137.707031 156.382812 137.367188 156.535156 137.054688 156.757812 L 134.378906 158.675781 L 133.339844 157.21875 C 132.492188 156.039062 130.964844 155.6875 129.921875 156.433594 L 123.125 161.304688 C 122.085938 162.046875 121.925781 163.609375 122.769531 164.789062 L 138.503906 186.753906 C 139.351562 187.9375 140.878906 188.285156 141.917969 187.542969 L 148.71875 182.671875 C 149.757812 181.925781 149.917969 180.367188 149.070312 179.1875 L 148.027344 177.730469 L 150.703125 175.816406 C 151.015625 175.589844 151.269531 175.320312 151.484375 175.027344 L 152.335938 176.21875 C 153.179688 177.398438 154.824219 177.671875 156.003906 176.824219 L 180.582031 159.21875 C 181.761719 158.375 182.03125 156.734375 181.1875 155.550781 L 173.1875 144.382812 C 181.304688 138.910156 189.949219 138.714844 198.734375 141.550781 C 198.734375 141.550781 199.34375 142.152344 200.734375 141.160156 C 203.078125 139.488281 201.96875 139.230469 201.96875 139.230469 Z M 201.96875 139.230469 " fill-opacity="1" fill-rule="nonzero"/><g clip-path="url(#8e579a02ac)"><path fill="#080808" d="M 140.679688 188.90625 C 139.53125 188.90625 138.421875 188.3125 137.710938 187.320312 L 121.980469 165.355469 C 121.433594 164.59375 121.179688 163.679688 121.269531 162.785156 C 121.367188 161.84375 121.820312 161.035156 122.554688 160.511719 L 129.355469 155.640625 C 129.878906 155.265625 130.503906 155.066406 131.164062 155.066406 C 132.308594 155.066406 133.417969 155.660156 134.128906 156.652344 L 134.605469 157.316406 L 136.488281 155.964844 C 136.519531 155.941406 136.550781 155.921875 136.582031 155.898438 L 136.40625 155.652344 C 135.25 154.035156 135.621094 151.78125 137.234375 150.621094 L 159.054688 134.996094 L 159.382812 134.726562 C 159.679688 134.488281 159.972656 134.246094 160.289062 134.023438 C 165.761719 130.101562 172.199219 128.03125 178.910156 128.03125 C 187.910156 128.03125 196.515625 131.820312 202.558594 138.429688 C 202.835938 138.59375 203.097656 138.875 203.179688 139.292969 C 203.382812 140.3125 202.34375 141.210938 201.300781 141.953125 C 200.601562 142.453125 199.933594 142.703125 199.3125 142.703125 C 198.847656 142.703125 198.507812 142.5625 198.296875 142.429688 C 194.730469 141.292969 191.308594 140.71875 188.117188 140.71875 C 183.226562 140.71875 178.785156 142.003906 174.574219 144.644531 L 181.980469 154.984375 C 183.136719 156.601562 182.765625 158.855469 181.148438 160.011719 L 156.574219 177.617188 C 155.957031 178.058594 155.230469 178.292969 154.476562 178.292969 C 153.316406 178.292969 152.21875 177.730469 151.542969 176.789062 L 151.367188 176.539062 C 151.335938 176.5625 151.304688 176.585938 151.273438 176.605469 L 149.390625 177.957031 L 149.863281 178.621094 C 151.019531 180.234375 150.761719 182.40625 149.285156 183.464844 L 142.484375 188.335938 C 141.960938 188.707031 141.335938 188.90625 140.679688 188.90625 Z M 131.164062 157.015625 C 130.910156 157.015625 130.683594 157.085938 130.492188 157.222656 L 123.691406 162.09375 C 123.417969 162.289062 123.246094 162.605469 123.210938 162.980469 C 123.167969 163.402344 123.292969 163.84375 123.5625 164.222656 L 139.296875 186.1875 C 139.804688 186.898438 140.769531 187.167969 141.351562 186.75 L 148.152344 181.878906 C 148.753906 181.449219 148.8125 180.492188 148.28125 179.753906 L 146.667969 177.503906 L 150.136719 175.023438 C 150.339844 174.878906 150.523438 174.691406 150.699219 174.453125 L 151.496094 173.367188 L 153.128906 175.652344 C 153.640625 176.363281 154.71875 176.546875 155.4375 176.03125 L 180.015625 158.425781 C 180.757812 157.894531 180.929688 156.859375 180.398438 156.121094 L 171.8125 144.136719 L 172.644531 143.574219 C 177.371094 140.386719 182.578125 138.769531 188.117188 138.769531 C 191.554688 138.769531 195.226562 139.394531 199.035156 140.621094 L 199.257812 140.695312 L 199.316406 140.753906 C 199.445312 140.746094 199.714844 140.691406 200.171875 140.367188 C 200.609375 140.054688 200.878906 139.824219 201.042969 139.664062 C 195.375 133.507812 187.324219 129.980469 178.910156 129.980469 C 172.609375 129.980469 166.5625 131.925781 161.421875 135.609375 C 161.140625 135.808594 160.878906 136.027344 160.613281 136.238281 L 160.226562 136.550781 L 138.371094 152.207031 C 137.628906 152.742188 137.457031 153.777344 137.988281 154.519531 L 139.628906 156.804688 L 138.339844 157.207031 C 138.058594 157.292969 137.824219 157.40625 137.625 157.550781 L 134.15625 160.035156 L 132.546875 157.789062 C 132.203125 157.3125 131.675781 157.015625 131.164062 157.015625 Z M 131.164062 157.015625 " fill-opacity="1" fill-rule="nonzero"/></g><path fill="#097c3c" d="M 130.648438 159.628906 L 127.179688 162.113281 C 126.140625 162.859375 125.984375 164.417969 126.828125 165.597656 L 129.59375 169.457031 " fill-opacity="1" fill-rule="nonzero"/><path fill="#ffffff" d="M 129.59375 170.433594 C 129.289062 170.433594 128.992188 170.292969 128.800781 170.027344 L 126.035156 166.167969 C 125.488281 165.40625 125.238281 164.488281 125.328125 163.59375 C 125.421875 162.65625 125.878906 161.847656 126.613281 161.320312 L 130.082031 158.835938 C 130.519531 158.523438 131.128906 158.625 131.441406 159.0625 C 131.753906 159.5 131.65625 160.109375 131.214844 160.421875 L 127.75 162.90625 C 127.476562 163.101562 127.304688 163.414062 127.269531 163.792969 C 127.226562 164.214844 127.351562 164.65625 127.621094 165.03125 L 130.386719 168.890625 C 130.699219 169.328125 130.597656 169.9375 130.160156 170.25 C 129.988281 170.375 129.789062 170.433594 129.59375 170.433594 Z M 129.59375 170.433594 " fill-opacity="1" fill-rule="nonzero"/><path fill="#080808" d="M 201.757812 181.199219 C 200.125 179.46875 197.082031 179.6875 194.957031 181.691406 L 193.171875 183.371094 L 191.800781 184.660156 " fill-opacity="1" fill-rule="nonzero"/><path fill="#ffffff" d="M 191.800781 185.636719 C 191.542969 185.636719 191.285156 185.53125 191.09375 185.328125 C 190.722656 184.9375 190.742188 184.320312 191.132812 183.953125 L 194.289062 180.980469 C 196.800781 178.613281 200.46875 178.414062 202.464844 180.53125 C 202.835938 180.925781 202.816406 181.542969 202.425781 181.910156 C 202.035156 182.28125 201.417969 182.261719 201.046875 181.871094 C 199.785156 180.53125 197.355469 180.769531 195.625 182.398438 L 192.46875 185.371094 C 192.28125 185.546875 192.042969 185.636719 191.800781 185.636719 Z M 191.800781 185.636719 " fill-opacity="1" fill-rule="nonzero"/><path fill="#097c3c" d="M 180.296875 219.949219 C 180.363281 219.894531 180.429688 219.84375 180.488281 219.785156 L 187.367188 213.304688 L 212.144531 189.96875 L 219.023438 183.488281 C 219.082031 183.429688 219.136719 183.367188 219.195312 183.308594 C 222.199219 184.527344 225.414062 185.089844 228.617188 184.988281 C 234.109375 184.867188 239.578125 182.792969 243.894531 178.726562 C 250.507812 172.5 252.621094 163.285156 250.117188 155.152344 L 249.9375 155.320312 C 249.921875 155.265625 249.90625 155.210938 249.890625 155.15625 L 233.871094 170.246094 L 221.152344 156.742188 L 237.8125 141.046875 C 229.515625 137.195312 219.355469 138.511719 212.285156 145.167969 C 211.882812 145.546875 211.5 145.9375 211.132812 146.339844 L 211.035156 146.234375 C 204.746094 152.957031 203.195312 162.585938 206.546875 170.730469 L 200.035156 176.867188 L 175.011719 200.433594 L 168.5 206.570312 C 160.566406 202.734375 150.867188 203.707031 143.777344 209.585938 L 143.875 209.6875 C 143.457031 210.03125 143.042969 210.390625 142.640625 210.769531 C 135.574219 217.425781 133.648438 227.488281 137 236.003906 L 153.660156 220.3125 L 166.382812 233.816406 L 150.363281 248.902344 C 150.417969 248.925781 150.46875 248.941406 150.523438 248.960938 L 150.34375 249.128906 C 158.3125 252.117188 167.636719 250.558594 174.25 244.328125 C 178.566406 240.261719 180.964844 234.925781 181.414062 229.449219 C 181.707031 226.261719 181.335938 223.019531 180.296875 219.949219 Z M 180.296875 219.949219 " fill-opacity="1" fill-rule="nonzero"/><path fill="#080808" d="M 158.457031 251.574219 C 158.453125 251.574219 158.457031 251.574219 158.457031 251.574219 C 155.554688 251.574219 152.707031 251.058594 150 250.042969 C 149.683594 249.925781 149.453125 249.652344 149.386719 249.324219 C 149.363281 249.191406 149.363281 249.0625 149.386719 248.9375 C 149.378906 248.660156 149.488281 248.390625 149.695312 248.195312 L 165.003906 233.773438 L 153.621094 221.691406 L 137.671875 236.714844 C 137.433594 236.933594 137.105469 237.027344 136.789062 236.957031 C 136.472656 236.886719 136.214844 236.664062 136.09375 236.363281 C 132.472656 227.160156 134.777344 216.835938 141.972656 210.0625 C 142.253906 209.796875 142.546875 209.535156 142.855469 209.269531 C 142.914062 209.101562 143.019531 208.953125 143.15625 208.835938 C 147.457031 205.273438 152.898438 203.308594 158.484375 203.308594 C 161.859375 203.308594 165.242188 204.03125 168.3125 205.410156 L 205.398438 170.476562 C 202.171875 161.960938 204.070312 152.253906 210.324219 145.570312 C 210.445312 145.4375 210.605469 145.34375 210.777344 145.296875 C 211.054688 145.007812 211.335938 144.726562 211.617188 144.460938 C 216.089844 140.25 221.933594 137.929688 228.074219 137.929688 C 231.5625 137.929688 235.074219 138.703125 238.222656 140.164062 C 238.515625 140.300781 238.722656 140.574219 238.773438 140.894531 C 238.824219 141.210938 238.714844 141.535156 238.480469 141.757812 L 222.527344 156.78125 L 233.914062 168.867188 L 249.222656 154.445312 C 249.425781 154.253906 249.703125 154.15625 249.980469 154.1875 C 250.109375 154.167969 250.238281 154.175781 250.363281 154.210938 C 250.691406 154.296875 250.949219 154.542969 251.046875 154.863281 C 253.765625 163.695312 251.28125 173.109375 244.5625 179.4375 C 240.234375 183.511719 234.578125 185.832031 228.636719 185.960938 C 228.390625 185.96875 228.136719 185.972656 227.882812 185.972656 C 224.976562 185.972656 222.136719 185.460938 219.429688 184.445312 L 181.417969 220.25 C 182.347656 223.261719 182.671875 226.382812 182.378906 229.539062 C 181.894531 235.453125 179.246094 240.960938 174.917969 245.039062 C 170.445312 249.253906 164.597656 251.574219 158.457031 251.574219 Z M 152.027344 248.675781 C 154.109375 249.304688 156.265625 249.625 158.457031 249.625 C 164.101562 249.625 169.472656 247.492188 173.582031 243.621094 C 177.558594 239.875 179.996094 234.816406 180.441406 229.371094 C 180.726562 226.265625 180.367188 223.203125 179.375 220.261719 C 179.246094 219.878906 179.367188 219.453125 179.675781 219.199219 C 179.679688 219.195312 179.726562 219.15625 179.730469 219.15625 C 179.757812 219.132812 179.789062 219.109375 179.816406 219.082031 L 218.355469 182.78125 C 218.378906 182.757812 218.40625 182.726562 218.433594 182.699219 L 218.488281 182.640625 C 218.761719 182.347656 219.191406 182.253906 219.5625 182.40625 C 222.429688 183.570312 225.484375 184.113281 228.585938 184.015625 C 234.054688 183.894531 239.25 181.765625 243.226562 178.019531 C 249.054688 172.53125 251.417969 164.511719 249.5625 156.808594 L 234.539062 170.957031 C 234.351562 171.132812 234.097656 171.226562 233.84375 171.222656 C 233.585938 171.214844 233.339844 171.101562 233.164062 170.914062 L 220.441406 157.410156 C 220.265625 157.222656 220.171875 156.972656 220.179688 156.714844 C 220.1875 156.457031 220.296875 156.210938 220.484375 156.035156 L 236.058594 141.363281 C 233.527344 140.390625 230.792969 139.878906 228.078125 139.878906 C 222.433594 139.878906 217.0625 142.007812 212.953125 145.878906 C 212.585938 146.226562 212.214844 146.605469 211.851562 147 C 211.726562 147.132812 211.574219 147.226562 211.402344 147.277344 C 205.796875 153.554688 204.238281 162.558594 207.449219 170.359375 C 207.605469 170.734375 207.511719 171.164062 207.21875 171.441406 L 169.167969 207.28125 C 168.875 207.558594 168.441406 207.625 168.078125 207.449219 C 165.113281 206.015625 161.796875 205.257812 158.484375 205.257812 C 153.523438 205.257812 148.679688 206.945312 144.796875 210.019531 C 144.734375 210.183594 144.632812 210.332031 144.492188 210.445312 C 144.0625 210.796875 143.675781 211.136719 143.308594 211.480469 C 137.054688 217.371094 134.820312 226.179688 137.417969 234.273438 L 152.996094 219.601562 C 153.386719 219.234375 154.003906 219.253906 154.371094 219.644531 L 167.089844 233.148438 C 167.269531 233.335938 167.363281 233.585938 167.355469 233.84375 C 167.347656 234.101562 167.238281 234.347656 167.050781 234.523438 Z M 152.027344 248.675781 " fill-opacity="1" fill-rule="nonzero"/><path fill="#097c3c" d="M 156.398438 247.257812 C 162.4375 247.554688 168.582031 245.492188 173.332031 241.019531 " fill-opacity="1" fill-rule="nonzero"/><path fill="#ffffff" d="M 157.566406 248.261719 C 157.164062 248.261719 156.757812 248.253906 156.351562 248.234375 C 155.8125 248.207031 155.398438 247.75 155.425781 247.210938 C 155.453125 246.675781 155.910156 246.273438 156.449219 246.285156 C 162.492188 246.585938 168.253906 244.460938 172.664062 240.308594 C 173.054688 239.941406 173.671875 239.960938 174.039062 240.351562 C 174.410156 240.742188 174.390625 241.359375 174 241.726562 C 169.5 245.96875 163.703125 248.261719 157.566406 248.261719 Z M 157.566406 248.261719 " fill-opacity="1" fill-rule="nonzero"/><path fill="#097c3c" d="M 232.433594 142.414062 C 226.285156 141.53125 219.808594 143.355469 214.933594 147.945312 C 214.742188 148.125 214.550781 148.308594 214.371094 148.496094 " fill-opacity="1" fill-rule="nonzero"/><path fill="#ffffff" d="M 214.371094 149.472656 C 214.125 149.472656 213.878906 149.378906 213.6875 149.195312 C 213.304688 148.820312 213.296875 148.203125 213.671875 147.816406 C 213.863281 147.621094 214.0625 147.429688 214.261719 147.238281 C 219.191406 142.59375 225.863281 140.488281 232.570312 141.449219 C 233.105469 141.527344 233.472656 142.019531 233.398438 142.550781 C 233.320312 143.085938 232.828125 143.453125 232.292969 143.378906 C 226.175781 142.5 220.089844 144.421875 215.601562 148.652344 C 215.421875 148.824219 215.242188 149 215.066406 149.175781 C 214.875 149.375 214.621094 149.472656 214.371094 149.472656 Z M 214.371094 149.472656 " fill-opacity="1" fill-rule="nonzero"/></svg>